<svg xmlns="http://www.w3.org/2000/svg" viewBox="0 0 100 100" fill="none">
  <rect width="100" height="100" rx="20" fill="#0A0F1A"/>
  <!-- Outer shield -->
  <path d="M50 10 L18 25 L18 52 C18 72 30.5 88 50 94 C69.5 88 82 72 82 52 L82 25 Z" fill="#22c55e" opacity="0.15" stroke="#22c55e" stroke-width="1.5"/>
  <!-- Inner shield -->
  <path d="M50 16 L23 28.5 L23 52 C23 68.5 33.5 82 50 87.5 C66.5 82 77 68.5 77 52 L77 28.5 Z" fill="#0f172a" stroke="#22c55e" stroke-width="1"/>
  <!-- Letter S -->
  <path d="M43 44 C43 41.8 40.8 40.5 38 40.5 C35.2 40.5 33 41.8 33 44 C33 48.5 43 47.5 43 52 C43 54.2 40.8 55.5 38 55.5 C35.2 55.5 33 54.2 33 52" stroke="#22c55e" stroke-width="2.5" stroke-linecap="round" fill="none"/>
  <!-- Letter M -->
  <path d="M49 55.5 L49 40.5 L54 49 L59 40.5 L59 55.5" stroke="white" stroke-width="2.5" stroke-linecap="round" stroke-linejoin="round" fill="none"/>
  <!-- Top accent -->
  <path d="M50 20 L30 28 L30 31 L50 23 L70 31 L70 28 Z" fill="#22c55e" opacity="0.4"/>
  <!-- Checkmark -->
  <path d="M41 64 L46 69 L56 59" stroke="#22c55e" stroke-width="2" stroke-linecap="round" stroke-linejoin="round"/>
</svg>
